<?xml version="1.0" encoding="utf-8"?>
<!-- Uploaded to: SVG Repo, www.svgrepo.com, Generator: SVG Repo Mixer Tools -->
<svg width="800px" height="800px" viewBox="0 0 1024 1024" class="icon"  version="1.1" xmlns="http://www.w3.org/2000/svg"><path d="M192 447.978667h640v320H192z" fill="#805A26" /><path d="M64 832h896v42.666667H64zM149.333333 746.666667h725.333334v42.666666H149.333333zM170.666667 383.978667h682.666666v85.333333H170.666667z" fill="#E89419" /><path d="M896 362.645333l-384-170.666666L128 362.666667v42.666666h768z" fill="#E89419" /><path d="M298.666667 469.312h42.666666v277.333333h-42.666666zM426.666667 469.312h42.666666v277.333333h-42.666666zM554.666667 469.312h42.666666v277.333333h-42.666666zM682.666667 469.333333h42.666666v277.333334h-42.666666z" fill="#FFB74D" /><path d="M341.333333 490.645333m-21.333333 0a21.333333 21.333333 0 1 0 42.666667 0 21.333333 21.333333 0 1 0-42.666667 0Z" fill="#FFB74D" /><path d="M469.333333 490.645333m-21.333333 0a21.333333 21.333333 0 1 0 42.666667 0 21.333333 21.333333 0 1 0-42.666667 0Z" fill="#FFB74D" /><path d="M298.666667 490.666667m-21.333334 0a21.333333 21.333333 0 1 0 42.666667 0 21.333333 21.333333 0 1 0-42.666667 0Z" fill="#FFB74D" /><path d="M170.666667 469.333333h42.666666v277.333334H170.666667z" fill="#FFB74D" /><path d="M213.333333 490.666667m-21.333333 0a21.333333 21.333333 0 1 0 42.666667 0 21.333333 21.333333 0 1 0-42.666667 0Z" fill="#FFB74D" /><path d="M170.666667 490.688m-21.333334 0a21.333333 21.333333 0 1 0 42.666667 0 21.333333 21.333333 0 1 0-42.666667 0Z" fill="#FFB74D" /><path d="M426.666667 490.666667m-21.333334 0a21.333333 21.333333 0 1 0 42.666667 0 21.333333 21.333333 0 1 0-42.666667 0Z" fill="#FFB74D" /><path d="M597.333333 490.666667m-21.333333 0a21.333333 21.333333 0 1 0 42.666667 0 21.333333 21.333333 0 1 0-42.666667 0Z" fill="#FFB74D" /><path d="M554.666667 490.645333m-21.333334 0a21.333333 21.333333 0 1 0 42.666667 0 21.333333 21.333333 0 1 0-42.666667 0Z" fill="#FFB74D" /><path d="M725.333333 490.688m-21.333333 0a21.333333 21.333333 0 1 0 42.666667 0 21.333333 21.333333 0 1 0-42.666667 0Z" fill="#FFB74D" /><path d="M682.666667 490.666667m-21.333334 0a21.333333 21.333333 0 1 0 42.666667 0 21.333333 21.333333 0 1 0-42.666667 0Z" fill="#FFB74D" /><path d="M810.666667 469.333333h42.666666v277.333334h-42.666666z" fill="#FFB74D" /><path d="M853.333333 490.688m-21.333333 0a21.333333 21.333333 0 1 0 42.666667 0 21.333333 21.333333 0 1 0-42.666667 0Z" fill="#FFB74D" /><path d="M810.666667 490.666667m-21.333334 0a21.333333 21.333333 0 1 0 42.666667 0 21.333333 21.333333 0 1 0-42.666667 0Z" fill="#FFB74D" /><path d="M512 239.146667L810.666667 362.666667H213.333333l298.666667-123.52m0-47.168L128 362.666667v42.666666h768v-42.688l-384-170.666666zM213.333333 789.333333h597.333334v42.666667H213.333333z" fill="#FFB74D" /><path d="M149.333333 746.666667h85.333334v42.666666H149.333333zM106.666667 789.333333h106.666666v42.666667H106.666667zM64 832h128v42.666667H64zM789.333333 746.666667h85.333334v42.666666h-85.333334zM810.666667 789.354667h106.666666v42.666666h-106.666666z" fill="#C97911" /><path d="M832 832h128v42.666667h-128z" fill="#C97911" /><path d="M512 170.666667m-21.333333 0a21.333333 21.333333 0 1 0 42.666666 0 21.333333 21.333333 0 1 0-42.666666 0Z" fill="#C97911" /></svg>